<svg width="68" height="66" viewBox="0 0 68 66" fill="none" xmlns="http://www.w3.org/2000/svg">
<path d="M11.5359 63.7635C11.5359 63.7635 2.78096 64.9966 1.54802 63.7635C0.315067 62.5304 1.54802 53.7756 1.54802 53.7756" stroke="black" stroke-width="2" stroke-linecap="round"/>
<path d="M1.60271 11.5359C1.60271 11.5359 0.369586 2.78096 1.60271 1.54802C2.83583 0.315067 11.5906 1.54801 11.5906 1.54801" stroke="black" stroke-width="2" stroke-linecap="round"/>
<path d="M65.7913 53.7756C65.7913 53.7756 67.0245 62.5306 65.7913 63.7635C64.5582 64.9965 55.8035 63.7635 55.8035 63.7635" stroke="black" stroke-width="2" stroke-linecap="round"/>
<path d="M55.8035 1.54802C55.8035 1.54802 64.5584 0.314898 65.7913 1.54802C67.0243 2.78114 65.7913 11.5359 65.7913 11.5359" stroke="black" stroke-width="2" stroke-linecap="round"/>
<g clip-path="url(#clip0_328_199)">
<path d="M28.8202 4.25828C30.8039 3.23556 33.2504 5.14533 33.3811 8.67962C33.4692 11.069 33.6241 39.3569 33.4297 42.3074C33.3963 42.8368 32.8039 41.796 32.4971 41.52C31.7953 40.8819 28.5796 36.5898 27.8809 35.9291C24.9493 33.1551 26.7939 33.2159 23.6285 31.0527C22.1217 30.0255 21.6463 31.9604 20.574 33.0827C19.3041 34.4131 16.7675 38.3637 14.8294 38.1827C14.2097 38.1284 13.6173 37.7211 13.0523 37.3274C12.5267 36.9609 12.0316 36.4812 11.582 35.9291C9.57698 33.4719 9.498 30.6299 9.40383 26.8332C9.28535 22.059 9.61648 16.9544 13.3925 15.9588C15.44 15.4203 17.767 17.339 18.5477 20.2443C18.9517 21.7558 18.6134 22.0729 18.8697 25.1C19.126 28.1271 21.0785 29.0355 23.6285 27.6588C26.6967 25.0975 25.8735 20.8255 26.0436 15.8703C26.1317 13.2275 26.0527 10.5621 26.2653 7.92833C26.3322 7.07757 27.7083 4.84205 28.8141 4.27186L28.8202 4.25828Z" fill="black"/>
<path d="M27.1152 41.8008C27.0467 40.9024 24.5098 39.2322 26.0151 38.6634C27.7261 38.0178 28.8356 39.5978 30.157 41.0379C31.787 42.812 34.8443 45.5477 34.006 49.299C33.0616 53.5335 29.247 54.6981 27.028 51.7954C25.345 49.5925 27.0114 44.76 23.8118 44.0341C21.9787 43.6181 20.7649 43.35 19.1647 45.2876C17.8776 47.2423 18.5103 50.8402 17.9181 53.2238C16.8242 57.6523 12.4548 57.7065 10.4945 54.6954C8.71493 51.9643 9.45044 48.2445 9.39122 44.624C9.35382 42.1953 9.12008 39.726 9.41927 37.3334C9.47537 36.873 9.93039 37.9158 10.2015 38.1776C11.5541 39.4868 12.1369 40.1368 13.77 40.6334C16.6964 41.5272 21.4016 35.9957 22.2088 35.156C23.016 34.3163 23.705 38.4172 25.2328 40.0763C25.9082 40.8097 27.1838 42.6991 27.1152 41.8008Z" fill="black"/>
</g>
<path d="M58.957 19.1061C64.117 19.1061 62.1941 13.647 58.957 13.1257C51.6827 11.9543 45.7628 14.4956 41.9198 19.1062C37.6442 24.2359 36 29.6888 40.9284 34.4891C43.7924 37.2786 50.0845 35.7502 51.35 39.1188C51.8392 40.4208 52.0471 41.327 51.3523 42.5779C49.6523 45.6387 39.5977 43.9342 37.5171 45.3131C36.6384 45.8954 35.8393 47.8157 37.517 50.122C40.8419 54.6929 53.1125 51.5489 57.7671 47.6519C62.387 43.7841 63.6784 37.224 57.7582 34.4777C54.7595 33.0866 52.6731 33.5715 49.7287 32.1192C44.3379 29.4603 44.0655 24.7753 48.7335 21.4568C51.4195 19.5472 55.824 19.1061 58.957 19.1061Z" fill="black"/>
<defs>
<clipPath id="clip0_328_199">
<rect width="28.3607" height="53.2687" fill="white" transform="translate(9.38477 3.95898)"/>
</clipPath>
</defs>
</svg>
